# xmcd CD database file
#
# Track frame offsets:
#	182
#	17775
#	30550
#	46247
#	59822
#	73345
#	86985
#	100582
#	113942
#	129075
#	142552
#	155452
#	165752
#	180285
#	192335
#	205612
#	229035
#	243805
#	263915
#	277530
#	298905
#
# Disc length: 4202 seconds
#
# Revision: 0
# Processed by: cddbd v1.5.1PL0 Copyright (c) Steve Scherf et al.
# Submitted via: CDex 1.51
#
DISCID=14106815
DTITLE=Le jazz de A à Z - Piano
DYEAR=1995
DGENRE=Jazz
TTITLE0=Fats Waller - Ain't misbehavin'
TTITLE1=Jelly Roll Morton - Mr Jelly Lord
TTITLE2=Teddy Wilson in the Benny Goodman Trio - Body and soul
TTITLE3=Earl Hines - Boogie woogie on St Louis Blues
TTITLE4=Willi e The Lion Smith - Dardanella
TTITLE5=Joe Turner - Hallelujah
TTITLE6=Art Tatum - Cherokee
TTITLE7=Errol Garner - Errol's bounce
TTITLE8=Count Basie - One o'clock boogie
TTITLE9=Oscar Peterson - My blue heaven
TTITLE10=Mary Lou Williams - Perdido
TTITLE11=Duke Ellington - take the A train
TTITLE12=Jimmy Jones - Easy to love
TTITLE13=George Wallington - Woody'n you
TTITLE14=Lennie Tristano - Spontaneous combustion
TTITLE15=Thelonious Monk - Round about midnight
TTITLE16=Bud Powell - Shaw 'nuff
TTITLE17=Phineas Newborn, Jr - Sugar Ray
TTITLE18=Martial Solal - The champ
TTITLE19=Bill Evans with George Russell and his Smalltet - Concerto for Billy the Kid
TTITLE20=Hilton Ruiz - Slip slidin' blues
EXTD=YEAR: 1995
EXTT0=
EXTT1=
EXTT2=
EXTT3=
EXTT4=
EXTT5=
EXTT6=
EXTT7=
EXTT8=
EXTT9=
EXTT10=
EXTT11=
EXTT12=
EXTT13=
EXTT14=
EXTT15=
EXTT16=
EXTT17=
EXTT18=
EXTT19=
EXTT20=
PLAYORDER=
